<?xml version="1.0" encoding="UTF-8" standalone="no"?>
<!DOCTYPE svg PUBLIC "-//W3C//DTD SVG 1.1//EN" "http://www.w3.org/Graphics/SVG/1.1/DTD/svg11.dtd">
<svg width="100%" height="100%" viewBox="0 0 14 14" version="1.1" xmlns="http://www.w3.org/2000/svg" xmlns:xlink="http://www.w3.org/1999/xlink" xml:space="preserve" xmlns:serif="http://www.serif.com/" style="fill-rule:evenodd;clip-rule:evenodd;stroke-linejoin:round;stroke-miterlimit:2;">
    <g transform="matrix(1.166774,0,0,1.166774,-1.167415,-1.167415)">
        <path d="M7.152,12.39C6.972,12.365 6.627,12.288 6.373,12.216C5.224,11.893 4.283,11.327 3.688,10.603C3.598,10.494 3.482,10.335 3.488,10.329C3.488,10.329 3.543,10.33 3.606,10.339C3.74,10.352 3.916,10.349 3.993,10.325C4.162,10.28 4.267,10.171 4.294,10.014C4.304,9.973 4.304,9.332 4.304,7.782L4.304,5.609L4.279,5.538C4.219,5.369 4.123,5.297 3.926,5.275C3.82,5.263 3.676,5.32 3.49,5.446C2.815,5.903 1.939,7.021 1.074,8.531C1.035,8.599 1.002,8.654 1.001,8.653C1.001,8.653 1.001,8.56 1.011,8.449C1.066,7.086 1.653,5.659 2.687,4.378C2.938,4.065 3.318,3.662 3.615,3.39C4.576,2.512 5.638,1.905 6.706,1.623L6.792,1.6L6.764,1.624C6.749,1.638 6.678,1.699 6.607,1.761C6.462,1.887 6.21,2.134 6.093,2.267C5.784,2.616 5.6,2.926 5.563,3.165C5.542,3.3 5.563,3.598 5.613,3.772C5.668,3.979 5.77,4.113 5.912,4.166C5.952,4.181 5.985,4.185 6.05,4.185C6.148,4.185 6.219,4.168 6.318,4.123L6.383,4.093L6.383,9.586L6.412,9.646C6.495,9.815 6.69,9.89 7.081,9.902C7.276,9.912 7.339,9.902 7.487,9.854C7.727,9.778 8.021,9.628 8.352,9.414L8.447,9.352L8.448,7.109C8.448,4.701 8.448,4.818 8.403,4.676C8.319,4.423 8.053,4.066 7.732,3.776L7.628,3.682L7.68,3.682C7.757,3.682 7.95,3.705 8.083,3.738C8.336,3.802 8.596,3.916 8.795,4.05L8.86,4.094L8.883,4.055C8.92,3.991 9.02,3.871 9.117,3.772C9.64,3.238 10.475,2.799 11.561,2.489C11.657,2.462 11.739,2.439 11.743,2.439C11.743,2.439 11.697,2.511 11.631,2.598C11.244,3.113 10.883,3.672 10.699,4.041C10.605,4.228 10.561,4.34 10.541,4.441C10.524,4.527 10.51,9.242 10.526,9.304C10.556,9.414 10.682,9.478 10.895,9.491C11.005,9.501 11.11,9.48 11.267,9.428C11.816,9.247 12.362,8.895 12.845,8.408L12.999,8.253L12.988,8.296C12.954,8.425 12.82,8.671 12.61,8.986C11.955,9.975 11.023,10.986 10.144,11.663C9.996,11.777 9.71,11.979 9.695,11.979C9.685,11.979 9.407,11.7 9.066,11.36C8.537,10.831 8.445,10.743 8.436,10.755C8.426,10.765 8.151,11.137 7.815,11.585C7.479,12.034 7.2,12.401 7.194,12.4C7.184,12.399 7.171,12.4 7.157,12.39L7.152,12.39Z" style="fill-rule:nonzero;"/>
    </g>
</svg>
