<?xml version="1.0" encoding="UTF-8" standalone="no"?>
<!DOCTYPE svg PUBLIC "-//W3C//DTD SVG 1.1//EN" "http://www.w3.org/Graphics/SVG/1.1/DTD/svg11.dtd">
<svg width="100%" height="100%" viewBox="0 0 800 800" version="1.1" xmlns="http://www.w3.org/2000/svg" xmlns:xlink="http://www.w3.org/1999/xlink" xml:space="preserve" xmlns:serif="http://www.serif.com/" style="fill-rule:evenodd;clip-rule:evenodd;stroke-linejoin:round;stroke-miterlimit:2;">
    <g transform="matrix(40.013004,0,0,40.013004,-80.156051,-80.156051)">
        <path d="M6.078,12C6.081,8.753 8.753,6.081 12,6.078C14.112,6.082 16.068,7.211 17.129,9.037L15.63,9.904L20.657,7.002C20.528,6.767 20.341,6.569 20.114,6.427L12.769,2.187C12.345,1.942 11.653,1.942 11.23,2.187L3.885,6.427C3.463,6.671 3.117,7.271 3.117,7.76L3.117,16.24C3.117,16.485 3.203,16.757 3.343,16.998L6.872,14.96C6.351,14.061 6.077,13.039 6.078,12Z" style="fill-rule:nonzero;"/>
    </g>
    <g transform="matrix(40.013004,0,0,40.013004,-80.156051,-80.156051)">
        <path d="M14.564,10.519C14.034,9.606 13.056,9.041 12,9.039C10.376,9.042 9.042,10.379 9.042,12.003C9.042,12.521 9.178,13.031 9.436,13.48L12,12L14.564,10.519Z" style="fill-rule:nonzero;"/>
    </g>
    <g transform="matrix(40.013004,0,0,40.013004,-80.156051,-80.156051)">
        <path d="M20.657,7.002L15.611,9.915L14.565,10.52L14.564,10.519L12,12L9.437,13.48C9.965,14.394 10.944,14.96 12,14.961C13.056,14.959 14.035,14.394 14.565,13.48L17.128,14.963C16.068,16.789 14.111,17.918 11.999,17.922C9.886,17.921 7.928,16.79 6.871,14.96L3.342,16.998C3.482,17.24 3.674,17.451 3.885,17.573L11.23,21.813C11.653,22.058 12.345,22.058 12.769,21.813L20.114,17.573C20.325,17.451 20.517,17.24 20.657,16.998C20.797,16.757 20.883,16.485 20.883,16.24L20.883,7.76C20.883,7.515 20.797,7.243 20.657,7.002ZM17.922,12.329L17.264,12.329L17.264,12.987L16.607,12.987L16.607,12.329L15.949,12.329L15.949,11.671L16.607,11.671L16.607,11.013L17.264,11.013L17.264,11.671L17.922,11.671L17.922,12.329ZM20.39,12.329L19.732,12.329L19.732,12.987L19.074,12.987L19.074,12.329L18.417,12.329L18.417,11.671L19.074,11.671L19.074,11.013L19.732,11.013L19.732,11.671L20.39,11.671L20.39,12.329Z" style="fill-rule:nonzero;"/>
    </g>
</svg>
