<?xml version="1.0" encoding="UTF-8" standalone="no"?>
<!DOCTYPE svg PUBLIC "-//W3C//DTD SVG 1.1//EN" "http://www.w3.org/Graphics/SVG/1.1/DTD/svg11.dtd">
<svg width="100%" height="100%" viewBox="0 0 24 24" version="1.1" xmlns="http://www.w3.org/2000/svg" xmlns:xlink="http://www.w3.org/1999/xlink" xml:space="preserve" xmlns:serif="http://www.serif.com/" style="fill-rule:evenodd;clip-rule:evenodd;stroke-linejoin:round;stroke-miterlimit:2;">
    <g transform="matrix(1.314751,0,0,1.314751,-3.405206,-3.944254)">
        <path d="M10.11,17L7.5,17L2.59,12L7.5,7L10.11,7L11.42,4.74L18.21,3L20.08,9.74L18.77,12L20.08,14.26L18.21,21L11.42,19.26L10.11,17M10.25,16.75L15.38,18.13L12.42,13L6.5,13L10.25,16.75M17.12,17.13L18.5,12L17.12,6.87L14.15,12L17.12,17.13M10.25,7.25L6.5,11L12.42,11L15.38,5.87L10.25,7.25Z" style="fill-rule:nonzero;"/>
    </g>
</svg>
