<?xml version="1.0" encoding="UTF-8" standalone="no"?>
<!DOCTYPE svg PUBLIC "-//W3C//DTD SVG 1.1//EN" "http://www.w3.org/Graphics/SVG/1.1/DTD/svg11.dtd">
<svg width="100%" height="100%" viewBox="0 0 800 800" version="1.1" xmlns="http://www.w3.org/2000/svg" xmlns:xlink="http://www.w3.org/1999/xlink" xml:space="preserve" xmlns:serif="http://www.serif.com/" style="fill-rule:evenodd;clip-rule:evenodd;stroke-linejoin:round;stroke-miterlimit:2;">
    <g transform="matrix(26.674611,0,0,26.674611,-26.759627,-26.818021)">
        <path d="M3.262,24.248C0.888,23.567 0.495,22.164 1.572,21.349C2.348,20.839 3.24,20.395 4.184,20.061L4.271,20.034L11.288,17.518L11.288,20.408L6.258,22.247C5.377,22.586 5.227,23.037 5.959,23.279C6.324,23.372 6.742,23.426 7.173,23.426C7.788,23.426 8.377,23.317 8.922,23.118L8.887,23.129L11.309,22.247L11.309,24.839C11.159,24.876 10.989,24.894 10.822,24.93C10.047,25.066 9.155,25.144 8.245,25.144C6.467,25.144 4.759,24.846 3.167,24.298L3.277,24.331L3.262,24.248ZM18.049,24.544L25.917,21.701C26.81,21.379 26.949,20.92 26.224,20.679C25.861,20.59 25.445,20.539 25.016,20.539C24.394,20.539 23.796,20.647 23.242,20.844L23.279,20.833L18.024,22.707L18.024,19.724L18.324,19.618C19.374,19.269 20.608,18.998 21.881,18.857L21.964,18.849C22.432,18.799 22.974,18.771 23.523,18.771C25.4,18.771 27.2,19.102 28.866,19.71L28.758,19.675C31.067,20.426 31.307,21.514 30.727,22.264C30.168,22.821 29.492,23.262 28.739,23.546L28.7,23.559L18.023,27.442L18.023,24.573L18.049,24.544ZM12.231,4.248L12.231,26.175L17.123,27.751L17.123,9.361C17.123,8.499 17.503,7.923 18.115,8.123C18.91,8.348 19.065,9.14 19.065,10.004L19.065,17.346C22.115,18.837 24.516,17.343 24.516,13.407C24.516,9.362 23.109,7.565 18.97,6.125C17.185,5.477 14.93,4.831 12.623,4.32L12.234,4.248L12.231,4.248Z" style="fill-rule:nonzero;"/>
    </g>
</svg>
